Patient4_TMGait_0pt4_03_right_43_EMG.mot
version=1
nRows=23
nColumns=33
inDegrees=no
endheader
time	1LAddLong	2LGlutMax	3LGlutMed	4LIliopsoas	5LSemiMemb	6LBicFemLong	7LRecFem	8LVastMed	9LVastLat	10LGasMed	11LTibAnt	12lTibPost	13LPeroneusLong	14LSol	15LExtDigLong	16LFlexDigLong	17RAddLong	18RGlutMax	19RGlutMed	20RIliopsoas	21RSemiMemb	22RBicFemLong	23RRecFem	24RVastMed	25RVastLat	26RGasMed	27RTibAnt	28RTibPost	29RPeroneusLong	30RSol	31RExtDigLong	32RFlexDigLong
57.27	0.032806	-0.014191	0.092926	-0.009003	0.074615	-0.042572	0.014191	-0.03479	0.023193	0.003967	-0.000916	0.005035	-0.22415	0.015564	0.01236	0.000305	0.004883	0.015106	0.16892	-0.082703	0.005798	-0.004883	-0.1416	0.027771	-0.009155	0.003204	0.034637	0.005341	-0.15686	-0.1181	-0.002441	-0.00351
57.271	0.023956	0.005188	0.052643	0.005646	0.062714	0.033264	-0.035095	-0.020447	-0.03418	-0.011292	-0.018921	0.00412	-0.13931	0.032196	0.003815	0.001221	0.005646	-0.008545	0.067444	-0.049286	0.014648	-0.005035	-0.11902	-0.030365	0.002136	0.011597	0.029602	-0.001984	-0.14557	-0.093994	-0.007629	-0.00946
57.272	0.009003	0.002747	0.035553	0.005035	0.019836	0.06897	0.002136	-0.00885	-0.062866	-0.013123	-0.009308	0.006561	-0.11566	0.016785	-0.025024	0.012207	0.007782	0.006866	0.085144	-0.019531	0.012054	0.006561	-0.11871	-0.024109	0.002594	-0.009766	0.017853	-0.000305	-0.57602	-0.055237	-0.007172	-0.000458
57.273	0.002899	0.023041	-0.010223	0.002136	-0.008698	0.097504	-0.015259	-0.009766	-0.070953	0.000916	-0.027771	0.005646	0.10422	-0.009613	-0.018311	0.007782	0.00412	0.016632	0.085602	0.010376	0.007019	0.007629	-0.12909	0.010376	0.005493	-0.001984	-0.011139	-0.000153	-0.74249	-0.076294	-0.00351	-0.012054
57.274	-0.001984	0.029907	-0.026398	0.014343	-0.021057	0.074005	0.000153	0.000916	-0.083771	0.003052	-0.009918	-0.001068	0.027161	0.006256	-0.006561	-0.012207	0.010071	0.033112	0.067749	-0.040131	0.005035	-0.00061	-0.159	-0.010834	-0.021362	-0.00824	0.002289	-0.002594	-0.23727	-0.084686	-0.005951	-0.014496
57.275	0.001984	-0.00946	-0.018768	-0.002747	-0.030365	0.065155	0.046387	0.013885	-0.031738	0.020599	-0.000916	0.007782	0.001526	-0.009003	-0.020447	-0.005341	-0.000763	-0.009155	0.061951	-0.056152	0.003967	0.004425	-0.11124	-0.019379	-0.010223	-0.016785	0.029602	-0.005188	0.44662	-0.091705	-0.003052	-0.015259
57.276	-0.00885	-0.027008	-0.03006	0.000153	-0.038147	-0.027771	0.046844	0.011292	0.001221	0.021667	-0.017395	0.000305	0.007629	0.004425	-0.009918	0.003357	-0.005493	0.014648	0.1236	-0.11398	0.004883	0.006104	-0.15823	-0.003815	-0.015106	-0.028992	0.010681	-0.010223	0.58548	-0.18478	-0.001221	-0.016632
57.277	-0.010681	-0.041656	-0.054169	0.005798	-0.0177	-0.050354	0.040436	0.01709	0.000916	0.016022	0.00351	-0.013885	0.019989	0.004425	-0.008698	-0.003357	0.002441	0.007782	0.11017	-0.034637	-0.003662	-0.015564	-0.096436	0.018005	-0.017242	-0.048065	-0.003662	-0.011902	0.57404	-0.19165	0.00412	-0.015869
57.278	-0.011749	-0.055237	-0.12024	0.01297	-0.046844	-0.011139	0.028992	0.002594	0.004272	0.014343	-0.005798	0.02182	-0.011444	0.006256	-0.006104	-0.00351	0.000916	0.008087	0.11673	0.24597	-0.006561	0.004425	-0.15015	0.006561	-0.017395	-0.055542	-0.00824	-0.012054	0.58334	-0.20218	-0.00351	-0.0177
57.279	-0.005951	-0.076904	-0.096741	-0.003662	-0.088806	0.030212	0.057983	-0.005188	-0.052185	0.01297	-0.01297	0.007019	-0.016632	-0.010834	0.007172	-0.001373	0.006561	0.032959	0.075989	0.31784	0.00885	-0.010529	-0.13763	-0.02243	-0.007324	-0.049591	0.004578	-0.010681	0.36987	-0.21393	-0.002289	-0.013428
57.28	0.00061	-0.083313	0.049896	0.010071	-0.12558	0.11917	0.02182	-0.004425	-0.024261	0.012665	-0.013275	0.003204	-0.014648	0.007019	-0.005188	-0.007477	0.00473	0.028992	0.086975	0.1619	0.007629	-0.007935	-0.15915	-0.019989	-0.006866	-0.024719	0.003967	0.004883	0.22949	-0.10956	-0.001221	-0.011597
57.281	0.004578	-0.11505	0.088501	-0.006256	-0.063171	0.15625	-0.050964	0.006561	0.1059	0.007629	-0.009918	0.002136	-0.031281	0.001678	-0.001831	-0.00351	0.003662	0.010376	0.062866	0.075226	-0.001831	-0.009155	-0.16098	-0.005951	-0.003052	-0.000305	-0.021973	-0.004425	0.23468	0.24094	-0.001678	-0.010376
57.282	0.005798	-0.11505	0.053864	-0.009155	0.09079	0.16556	-0.089569	0.002747	0.19577	0.005798	-0.004883	-0.002899	-0.029602	0.005646	0.001373	0.00824	0.005798	-0.047455	-0.003815	0.037079	0.003204	-0.016632	-0.17822	0.036469	-0.011749	0.009308	0.058136	-0.004425	-0.16419	0.45685	-0.000305	-0.01297
57.283	-0.004272	-0.13382	0.038147	0.000458	0.078125	0.23727	-0.038452	0.002899	0.25177	0.010071	-0.003967	0.009003	-0.038452	-0.006409	0.008392	-0.001526	0.001221	-0.045013	0.072784	-0.043793	0.017395	0.000458	-0.15488	0.0354	-0.008545	0.019379	0.065765	-0.001984	-0.4454	0.18082	-0.001831	-0.018005
57.284	-0.021515	-0.072632	0.031281	-0.007019	0.026093	0.26413	-0.015564	0.002594	0.21347	0.016022	-0.016479	0.004883	-0.023193	-0.001526	0.001831	-0.00824	-0.000763	-0.014038	0.1001	-0.071411	0.017853	0.010376	-0.215	0.009918	-0.011292	0.008087	0.025482	-0.002594	-0.13779	0.012512	-0.003052	-0.010223
57.285	-0.011444	-0.10101	0.016479	0.00351	0.008392	0.29098	0.026398	0.002136	0.062866	0.019073	0.00946	0.002289	-0.015717	0.009003	-0.001831	0.001678	0.000458	0.027618	0.049133	-0.10727	0.003967	-0.030823	-0.21744	0.020142	-0.015717	0.003967	-0.016632	-0.008392	0.28549	0.22171	-0.001678	-0.021667
57.286	-0.001221	-0.16022	0.014496	0.021057	-0.003357	0.22324	0.08667	-0.001831	-0.062256	0.016022	-0.033569	-0.000763	-0.015411	-0.004272	-0.008545	0.003815	-0.000458	0.025024	0.075684	-0.063171	-0.011139	-0.014801	-0.22171	0.032196	-0.000763	-0.004578	-0.034332	-0.003357	0.1445	0.44464	-0.002899	-0.011597
57.287	-0.013428	-0.15961	0.007324	0.009766	0.023041	0.14206	-0.004425	-0.001068	-0.001678	0.023651	-0.029144	0.006409	-0.013733	0.018005	-0.00412	0.003052	0.005646	0.041504	0.059357	0.012207	-0.027161	0.013428	-0.1944	0.024567	0.016327	-0.001678	-0.037842	-0.000916	0.032196	0.45639	-0.003357	-0.020142
57.288	0.001068	-0.16403	-0.009308	0.004883	0.036926	-0.14496	-0.1181	0.007782	0.11368	0.011597	-0.001831	0.002289	-0.019989	0.028992	-0.010071	0.015106	0.001831	0.046082	-0.012817	0.11185	-0.031891	0.023193	-0.20996	0.011444	-0.013123	-0.000305	-0.038757	0.000305	0.16724	0.12772	-0.004272	-0.013428
57.289	0.000763	-0.13641	-0.00824	-0.002899	0.007935	0.01297	-0.06897	0.009918	0.12146	0.016785	-0.001526	0.00061	-0.014343	0.004425	-0.003357	0.027008	0.005188	0.00061	0.072479	0.080109	-0.013885	0.023499	-0.2002	0.041504	0.021515	0.002441	-0.012207	-0.003967	0.0914	-0.18249	-0.004578	-0.015106
57.29	-0.003967	-0.13382	-0.032654	0	-0.007019	0.044708	-0.007172	0.006866	0.080261	0.007935	-0.005035	0.001678	-0.010071	0.021057	-0.008698	0.012512	-0.002594	0.006561	0.057983	0.001526	0.014038	0.029755	-0.18356	0.061035	0.028687	-0.00412	0.012817	-0.012207	0.093536	-0.24612	-0.004578	-0.015717
57.291	0.005493	-0.14099	-0.055542	-0.00061	-0.02243	-0.031433	-0.015259	0.015564	-0.018311	0.012207	-0.019073	0.005646	-0.012665	0.01709	-0.008087	0.010986	-0.005951	0.031281	-0.005341	-0.007172	0.005035	0.085907	-0.25284	0.052643	0.030823	-0.008698	-0.019531	-0.009918	0.15182	0.12299	-0.002136	-0.019226
57.292	0.01297	-0.12161	-0.053101	0.002899	-0.10956	-0.021057	-0.081024	0.022278	-0.020599	0.030365	-0.012512	0.007935	-0.034332	0.025177	-0.010681	0.020294	0.004272	0.029449	0.015869	-0.028076	0.01358	0.086517	-0.25131	0.056305	0.041962	-0.00061	-0.029755	-0.002136	0.017395	0.044861	-0.003357	-0.02121
